# xmcd
#
# Track frame offsets:
#	150
#	12338
#	29048
#	42368
#	60830
#	72132
#	85246
#	98334
#	112047
#	127328
#	139168
#	157795
#	177739
#	193679
#	211317
#	223460
#	233351
#	245127
#	259971
#	272835
#
# Disc length: 3812 seconds
#
# Revision: 1
# Processed by: cddbd v1.5.2PL0 Copyright (c) Steve Scherf et al.
# Submitted via: audiograbber 1.83.01
#
DISCID=2c0ee214
DTITLE=Kathy Durkin - Shanagolden
DYEAR=1900
DGENRE=
TTITLE0=All Thing Made New Again
TTITLE1=Slow Country Dance
TTITLE2=Come Back To Me
TTITLE3=He Took Your Place
TTITLE4=It's A Lovely Lovely World
TTITLE5=Love Is The Answer
TTITLE6=I Wish I Could Fall In Love Again
TTITLE7=Send Me The Pillow You Dream On
TTITLE8=Love's Old Sweet Song
TTITLE9=She Moved Through The Fair
TTITLE10=The Way Back Home
TTITLE11=Working Man
TTITLE12=My Own Native Land
TTITLE13=Seven Spanish Angels
TTITLE14=Funny Face
TTITLE15=You Are The One
TTITLE16=Every Second
TTITLE17=Somewhere Tonight
TTITLE18=Memories Of Home
TTITLE19=Shanagolden
EXTD=
EXTT0=
EXTT1=
EXTT2=
EXTT3=
EXTT4=
EXTT5=
EXTT6=
EXTT7=
EXTT8=
EXTT9=
EXTT10=
EXTT11=
EXTT12=
EXTT13=
EXTT14=
EXTT15=
EXTT16=
EXTT17=
EXTT18=
EXTT19=
PLAYORDER=
